<svg width="25" height="24" viewBox="0 0 25 24" fill="none" xmlns="http://www.w3.org/2000/svg">
<path d="M17.142 19.8633L1.08253 8.78553C-0.544904 7.66298 0.00831464 5.32566 2.03768 4.77602L19.106 0.14348C19.4676 0.0130174 19.855 -0.0293334 20.2363 0.0199461C20.6174 0.0692256 20.9814 0.208712 21.2979 0.426831C21.6144 0.644949 21.8743 0.935407 22.0561 1.2741C22.2378 1.61279 22.3362 1.98994 22.343 2.37426L21.3314 18.0837C21.2115 19.9484 18.7694 20.9859 17.142 19.8633Z" fill="#94A3B8"/>
<path d="M12.0484 22.5978L2.58729 4.0954C2.37102 3.67212 2.27585 3.19733 2.31228 2.7234C2.3487 2.24946 2.51531 1.79479 2.79372 1.40954C3.07214 1.02428 3.45154 0.723394 3.8901 0.540062C4.32865 0.35673 4.80932 0.298078 5.27909 0.370578L22.8129 3.07669C23.2166 3.139 23.5997 3.29624 23.9308 3.53547C24.2619 3.77472 24.5314 4.08912 24.7173 4.45284C24.9032 4.81656 25.0001 5.2192 25 5.62767C24.9999 6.03613 24.9029 6.43876 24.717 6.80241L16.6398 22.5987C16.4229 23.0207 16.0938 23.3749 15.6888 23.622C15.2837 23.8693 14.8184 24 14.3438 23.9999C13.8693 23.9998 13.404 23.8689 12.999 23.6216C12.594 23.3742 12.2652 23.0199 12.0484 22.5978Z" fill="#94A3B8"/>
<path d="M17.8156 6.5452L14.449 6L10.3156 7.17758L11.9654 10.5642L15.8288 13.3614C15.9141 13.4225 16.0078 13.4692 16.1067 13.5L17.5742 10.4889L17.8156 6.5452Z" fill="white"/>
</svg>
